Coordinates
version=1
nRows=19
nColumns=33
inDegrees=yes

Units are S.I. units (second, meters, Newtons, ...)
Angles are in degrees.

endheader
time	ground_thorax_rot_x	ground_thorax_rot_y	ground_thorax_rot_z	ground_thorax_tx	ground_thorax_ty	ground_thorax_tz	clav_prot_r	clav_elev_r	scapula_abduction_r	scapula_elevation_r	scapula_upward_rot_r	scapula_winging_r	shoulder_elv_r	plane_of_elev_r	axial_rot_r	elbow_flexion_r	pro_sup_r	wrist_flex_r	wrist_dev_r	clav_prot_l	clav_elev_l	scapula_abduction_l	scapula_elevation_l	scapula_upward_rot_l	scapula_winging_l	shoulder_elv_l	plane_of_elev_l	axial_rot_l	elbow_flexion_l	pro_sup_l	wrist_flex_l	wrist_dev_l
      7.07000000	     37.63097585	     -0.10549185	      6.73856390	    -66.86489975	    805.92960567	      4.31651752	     14.40251925	     39.54292647	     45.00000000	     39.72359941	    -20.48195043	  -2604.23414070	     61.81743005	     30.69663468	     60.08090814	    730.70695133	   -347.22468373	     17.91279919	     10.85427240	      7.52763973	    -45.00000000	    -45.00000000	     45.00000000	    -20.41061505	    810.28399113	  -4251.94256380	     20.22766380	    -39.16243937	   2525.87627957	     11.21177880	     15.06944378	    -18.97753119
      7.08000000	     37.44844498	      0.76267685	      7.86607178	    -65.30487887	    803.38743310	      4.86248461	     14.52418191	     39.48034087	     45.00000000	     39.48228651	    -21.34927834	  -2604.46021351	     61.30391230	     30.58841853	     61.39127787	    730.36540029	   -348.17650396	     17.70950538	     10.72572710	      7.36090083	    -45.00000000	    -45.00000000	     45.00000000	    -22.80692005	    809.94938656	  -4251.89796017	     20.48537233	    -38.82269888	   2525.71139285	     10.78184479	     14.79677522	    -18.87019570
      7.09000000	     37.24593468	      0.69399371	      7.95500065	    -63.99636179	    801.10569164	      5.35889120	     14.47721528	     38.27388011	     45.00000000	     38.85166005	    -21.04407360	  -2604.26549840	     61.44322175	     30.24525117	     62.01712428	    730.14150813	   -348.98973241	     17.53747231	     10.99073262	      7.40730522	    -45.00000000	    -45.00000000	     45.00000000	    -22.79138440	    809.48185345	  -4251.80598778	     20.24676818	    -38.42219772	   2525.50073865	     10.65695912	     15.07713849	    -18.62727115
      7.10000000	     37.23644981	      0.20922375	      7.52609750	    -62.95147371	    799.07069660	      5.79746647	     14.33762633	     39.08486619	     45.00000000	     38.64900802	    -20.27463289	  -2604.37643858	     61.13661261	     30.19000027	     62.54586408	    730.05487703	   -350.06445484	     17.46970681	     11.03990884	      7.71896305	    -45.00000000	    -45.00000000	     45.00000000	    -21.49260925	    809.64603803	  -4252.47648848	     20.40113952	    -38.00791453	   2525.01360431	     10.63022507	     15.05462476	    -18.47490512
      7.11000000	     37.03852998	      0.55307241	      8.11147315	    -62.18518960	    797.29217772	      6.16637692	     14.24051723	     37.58267272	     45.00000000	     38.09287440	    -20.64120056	  -2604.32673014	     61.27004653	     29.93813550	     63.46257351	    729.80618579	   -350.59049285	     17.26912042	     11.27574950	      7.11845381	    -45.00000000	    -45.00000000	     45.00000000	    -22.67599046	    809.18992516	  -4252.09354955	     20.16392704	    -38.33469123	   2525.01182787	     10.73807677	     15.00957601	    -18.32009637
      7.12000000	     36.88863306	      0.35751014	      8.21212172	    -61.69397413	    795.74936636	      6.45969211	     14.18881409	     37.78481487	     45.00000000	     37.70634612	    -20.61226629	  -2604.43915204	     61.27623758	     29.96207680	     63.98107543	    729.90757478	   -351.01172304	     17.26524106	     11.36447701	      7.90546061	    -45.00000000	    -45.00000000	     45.00000000	    -21.73765666	    809.71651109	  -4252.74580222	     20.32986487	    -37.87007368	   2524.47141113	     10.68747715	     14.87523658	    -18.15104969
      7.13000000	     36.81297484	      0.18775450	      8.28423318	    -61.47738780	    794.44056787	      6.66902607	     14.19046418	     37.42038737	     45.00000000	     37.48155138	    -20.29943638	  -2604.42559577	     61.06561571	     29.70732162	     64.35047437	    729.73291759	   -351.29390182	     17.13331786	     11.35605913	      7.12939776	    -45.00000000	    -44.62980389	     45.00000000	    -22.22170163	    809.04018042	  -4252.23660537	     19.94563696	    -38.18543300	   2524.63937776	     10.78032544	     15.01338029	    -18.14533994
      7.14000000	     36.64216413	      0.14091335	      8.55450226	    -61.52711159	    793.34893962	      6.79319065	     14.13295346	     37.74312327	     45.00000000	     37.24000920	    -20.67911595	  -2604.53327919	     60.89877515	     29.77154517	     65.05257996	    729.61975893	   -351.38411631	     17.09446826	     11.52085759	      7.75631847	    -45.00000000	    -45.00000000	     45.00000000	    -21.53752099	    810.10413980	  -4252.97736935	     20.44332624	    -37.79464027	   2524.13559520	     10.67228270	     14.44702050	    -18.03110116
      7.15000000	     36.75336410	     -0.13298297	      8.34378405	    -61.83833607	    792.45449632	      6.83587474	     14.15512293	     37.80966767	     45.00000000	     37.26487428	    -20.37661501	  -2604.45226466	     60.77842415	     29.56263068	     65.27385981	    729.41303022	   -351.37653193	     17.01084832	     11.46629430	      7.43110379	    -45.00000000	    -45.00000000	     45.00000000	    -21.64395442	    809.47846993	  -4252.64804349	     20.11887365	    -37.99982382	   2524.13749564	     10.75612819	     14.61061833	    -18.02577052
      7.16000000	     36.77324521	     -0.27813245	      8.48338233	    -62.40626498	    791.75231656	      6.80440726	     14.13226612	     37.26089308	     45.00000000	     37.07878409	    -20.50067212	  -2604.62674196	     60.84395942	     29.56121212	     65.73768903	    729.53817522	   -351.16668193	     17.02451400	     11.53488622	      7.51748835	    -45.00000000	    -45.00000000	     45.00000000	    -21.43479369	    809.84462757	  -4252.75701572	     20.08879225	    -37.90556963	   2524.01171701	     10.79335872	     14.52279736	    -18.00391855
      7.17000000	     36.69908453	     -0.47704975	      8.53148589	    -63.23660746	    791.21810505	      6.70994835	     14.06359182	     37.83152637	     45.00000000	     36.99230711	    -20.60465501	  -2604.57323895	     60.70663917	     29.40280098	     66.10788410	    729.33253291	   -350.78827497	     17.00849849	     11.46833422	      7.34274043	    -45.00000000	    -45.00000000	     45.00000000	    -21.55583850	    809.74418539	  -4252.57267022	     20.06071094	    -38.01367480	   2524.16042494	     10.88183089	     14.19832756	    -18.10118099
      7.18000000	     36.79756763	     -0.67735517	      8.63663072	    -64.32820887	    790.84086414	      6.56517501	     14.26178489	     37.29689156	     45.00000000	     37.06231270	    -20.83266978	  -2604.66209734	     60.63716000	     29.46818385	     66.56706622	    729.36881954	   -350.23874879	     17.01305285	     11.60810657	      7.49597269	    -45.00000000	    -45.00000000	     45.00000000	    -21.38113958	    809.95137669	  -4252.89737211	     20.21642153	    -38.01660995	   2523.70461968	     11.08385743	     14.11967078	    -17.98443756
      7.19000000	     36.82033960	     -0.81603685	      8.82815446	    -65.69467994	    790.60208988	      6.38105096	     14.09762714	     37.91997136	     45.00000000	     37.05567136	    -21.09169891	  -2604.63651432	     60.69421951	     29.27941649	     66.82229937	    729.40944388	   -349.57602991	     17.12106694	     11.32338982	      7.34504855	    -45.00000000	    -45.00000000	     45.00000000	    -21.70699426	    809.83917342	  -4252.54547358	     19.92210459	    -38.16187155	   2523.87820654	     11.34822303	     13.83575074	    -18.14788754
      7.20000000	     36.88074748	     -1.03246894	      8.90287295	    -67.34035662	    790.48775637	      6.16755259	     14.36223678	     37.60511752	     45.00000000	     37.13459852	    -21.24588072	  -2604.77394205	     60.55643470	     29.31038629	     67.34002585	    729.43234536	   -348.68721938	     17.14136907	     11.54750241	      7.50171397	    -45.00000000	    -45.00000000	     45.00000000	    -21.69781321	    810.24820700	  -4252.74966074	     20.21744714	    -38.17260567	   2523.72689604	     11.68593787	     13.57199784	    -18.08998562
      7.21000000	     37.00974159	     -1.37326857	      8.74070354	    -69.27690147	    790.48377735	      5.93055627	     14.04601607	     38.07571244	     44.99051038	     37.24716166	    -20.65002492	  -2604.83211476	     60.48626820	     28.83295531	     68.02785313	    729.61672166	   -347.76431710	     17.32947026	     11.23031421	      7.33531895	    -45.00000000	    -45.00000000	     45.00000000	    -21.82343706	    810.03469427	  -4252.43034723	     19.97623050	    -38.25659425	   2523.98421158	     12.06608960	     13.30309718	    -18.29763403
      7.22000000	     37.03085398	     -1.45617114	      8.94097257	    -71.51207869	    790.57730851	      5.67263248	     14.05177739	     37.97079324	     45.00000000	     37.25015824	    -20.72722631	  -2605.18439629	     60.32024914	     28.71319953	     69.23747120	    729.78965851	   -346.59287691	     17.38342174	     11.30440449	      7.37402798	    -45.00000000	    -45.00000000	     45.00000000	    -22.01093513	    810.37441344	  -4252.46065747	     20.07627848	    -38.26175227	   2524.02064374	     12.53557953	     13.06486246	    -18.27712456
      7.23000000	     37.12589873	      1.50284842	     13.08864059	    -74.04530681	    790.75866207	      5.39395278	     15.69236167	     37.57889031	     42.35999903	     39.45798671	    -28.44941018	  -2601.60848678	     61.96240152	     29.95116235	     64.43718315	    729.93654324	   -343.02560958	     17.64135554	     10.88284757	      8.88231779	    -45.00000000	    -42.43316645	     45.00000000	    -28.50218881	    809.87732788	  -4252.27893984	     20.10246116	    -38.99923996	   2524.22232801	     14.33941047	     12.81257608	    -18.58366490
      7.24000000	     37.28679662	      2.52817348	     14.87007481	    -76.86985612	    791.01532665	      5.09288666	     15.47044827	     38.24599390	     41.62085749	     40.60822447	    -31.12832210	  -2601.06662794	     62.00874108	     30.51765865	     64.05203704	    730.16982569	   -340.87780133	     17.66000417	     10.71427875	      8.69187946	    -45.00000000	    -40.51948406	     45.00000000	    -32.46872229	    808.99786280	  -4251.73439381	     20.19550925	    -38.55061929	   2524.24015473	     14.67829454	     12.36047222	    -18.50237780
      7.25000000	     37.28744798	      3.19273923	     16.11648987	    -79.97819791	    791.34041835	      4.76661143	     15.78906526	     38.25738221	     41.01609654	     41.26165893	    -32.78884225	  -2600.38314203	     62.39641568	     30.42249854	     64.07446220	    730.35046100	   -339.62304358	     17.77198487	     10.63340652	      9.05703378	    -45.00000000	    -39.70902726	     45.00000000	    -34.36423707	    809.11438610	  -4251.55408229	     20.19978479	    -38.94563647	   2524.25316353	     14.98282562	     12.05747280	    -18.53602007
